# xmcd CD database file
#
# Track frame offsets:
#	150
#	14687
#	28342
#	41720
#	62060
#	73537
#	105110
#	128010
#	143425
#	157175
#	171755
#	186135
#	199170
#	209462
#	220585
#	233427
#
# Disc length: 3219 seconds
#
# Revision: 0
# Processed by: cddbd v1.4PL0 Copyright (c) Steve Scherf et al.
# Submitted via: CDex 1.50beta9
#
DISCID=de0c9110
DTITLE=Various Artist - The Best Of FM Golden Jazz
DYEAR=2002
DGENRE=Jazz
TTITLE0=As Time Goes By - Tony Bennett
TTITLE1=Maria Elena - Jimmy Dorsey Orchestra
TTITLE2=Body And Soul - Billie Holiday
TTITLE3=One Note Samba - Al Jarreau
TTITLE4=Miss Celie's Blues - Justine Palmelay
TTITLE5='Round Midnight - Thelonious Monk
TTITLE6=New York State Of Mind - Carmen McRae
TTITLE7=My Melancholy Baby - Dizzy Gillespie and Charlie Parker
TTITLE8=I've Grown Accustomed To Her Face - Tony Bennett and Count Basie
TTITLE9=I'm In The Mood For Love - Coleman Hawkins
TTITLE10=The Starlit Hour - Ella Fitzgerald
TTITLE11=You Won't Be Staisfied - Louis Armstrong and Ella Fitzgerald
TTITLE12=Deep Purple - Erroll Garner
TTITLE13=Bye Bye Blackbird- Carmen McRae
TTITLE14=Besame Mucho - Nat King Cole
TTITLE15=The Way We Were - Herb Ellis
EXTD=YEAR: 2002
EXTT0=
EXTT1=
EXTT2=
EXTT3=
EXTT4=
EXTT5=
EXTT6=
EXTT7=
EXTT8=
EXTT9=
EXTT10=
EXTT11=
EXTT12=
EXTT13=
EXTT14=
EXTT15=
PLAYORDER=
